<svg width="1522" height="265" viewBox="0 0 1522 265" fill="none" xmlns="http://www.w3.org/2000/svg">
<path d="M157.654 0.68841C165.915 0.68841 171.193 2.0653 173.488 4.81908C175.783 7.11394 176.93 12.1624 176.93 19.9649V50.9449C217.319 17.4406 260.691 0.68841 307.046 0.68841C318.98 0.68841 324.946 10.0971 324.946 28.9146L327.011 216.172C351.795 211.123 371.76 190.929 386.906 155.588C386.906 156.965 386.447 160.638 385.529 166.604C384.611 172.111 383.922 176.012 383.464 178.307C383.464 180.143 382.775 183.585 381.398 188.634C380.48 193.683 379.333 197.814 377.956 201.026C377.038 203.78 375.661 207.222 373.826 211.353C371.99 215.025 369.695 218.467 366.941 221.679C364.646 224.891 362.122 227.875 359.368 230.629C350.648 237.972 341.927 243.709 333.207 247.84C324.487 251.512 317.832 253.578 313.242 254.036L307.046 254.725C293.277 254.725 286.393 247.382 286.393 232.694L285.705 37.8644C269.182 38.7824 249.217 45.2078 225.81 57.1409C202.403 68.6145 186.11 84.2202 176.93 103.955V236.137C176.93 241.644 175.323 246.233 172.111 249.905C168.899 253.118 164.768 254.725 159.719 254.725C156.965 254.725 154.212 254.036 151.458 252.659C149.163 250.824 147.097 248.529 145.262 245.775C143.885 243.021 143.197 239.809 143.197 236.137L142.508 37.8644C125.985 38.7824 106.021 45.2078 82.6134 57.1409C59.2063 68.6145 42.9131 84.2202 33.7338 103.955V236.137C33.7338 241.644 31.898 246.233 28.2262 249.905C25.0135 253.118 21.1123 254.725 16.5227 254.725C11.9331 254.725 8.03181 253.118 4.81911 249.905C1.60642 246.233 0 241.644 0 236.137V19.9649C0 16.7522 0.688445 13.7689 2.06533 11.0151C3.44222 7.80239 5.50756 5.50752 8.26134 4.13063C11.0151 2.29483 13.7689 1.37686 16.5227 1.37686C21.1123 1.37686 25.0135 3.21266 28.2262 6.88441C31.898 10.5562 33.7338 14.9162 33.7338 19.9649V50.9449C73.6636 17.4406 114.97 0.68841 157.654 0.68841ZM603.653 89.4978C599.981 78.0242 594.703 68.156 587.819 59.8947C581.393 51.6333 574.739 45.8962 567.854 42.6835C561.428 39.4708 555.004 36.9465 548.578 35.1106C542.612 33.2748 537.792 32.3569 534.12 32.3569L527.924 33.0453C514.155 33.5042 502.452 37.176 492.814 44.0604C483.175 50.486 476.521 58.2878 472.849 67.4676C469.177 76.6473 466.423 85.8256 464.587 95.0053C463.21 103.725 462.752 111.07 463.21 117.036L463.899 126.674C465.734 145.95 469.406 162.243 474.914 175.553C480.422 188.864 486.388 198.272 492.814 203.78C499.24 208.829 505.664 212.729 512.09 215.483C518.516 217.778 523.794 218.925 527.924 218.925L534.809 218.237C544.905 215.483 553.627 210.664 560.97 203.78C568.313 196.895 573.592 189.552 576.804 181.749C580.016 173.947 582.541 166.374 584.377 159.031C586.212 151.228 587.13 144.803 587.13 139.754L587.819 132.181C587.819 126.674 589.196 122.543 591.95 119.789C594.703 116.577 597.687 114.74 600.899 114.282H605.03C610.079 115.2 613.75 117.036 616.045 119.789C618.799 122.085 620.176 124.15 620.176 125.985V129.428C619.257 152.376 615.127 172.341 607.784 189.322C600.899 206.303 593.326 218.695 585.065 226.498C577.262 234.301 567.854 240.267 556.839 244.398C545.824 248.529 537.792 250.824 532.743 251.282C528.154 251.741 523.335 251.971 518.286 251.971C511.86 251.971 505.664 251.282 499.698 249.905C493.732 248.07 488.453 245.775 483.864 243.021C479.275 240.267 474.914 237.055 470.783 233.383C467.111 229.711 463.669 226.04 460.457 222.368C457.703 218.237 455.179 214.336 452.884 210.664C450.589 206.533 448.523 202.633 446.688 198.961C445.311 195.288 443.934 192.076 442.557 189.322C441.639 186.568 441.18 184.273 441.18 182.438L440.492 180.372C432.689 151.916 429.477 127.592 430.854 107.397C432.23 86.744 436.591 69.9914 443.934 57.1409C451.277 43.8309 459.08 33.5042 467.341 26.1609C476.061 18.3584 483.864 12.8509 490.748 9.63819L500.386 5.50752C522.875 0.458883 541.005 -0.229561 554.774 3.44219C568.542 7.11394 578.869 13.7689 585.754 23.4071C592.638 32.5864 597.457 42.2246 600.211 52.3218C602.965 61.96 604.342 70.6798 604.342 78.4827L603.653 89.4978ZM761.329 128.051C738.839 142.738 715.432 146.409 691.108 139.066C667.701 132.181 655.537 117.494 654.62 95.0053C653.702 68.3859 670.454 36.9465 704.877 0.68841C703.958 2.52422 702.811 5.04861 701.434 8.2613C700.516 11.474 698.681 17.67 695.927 26.8493C693.632 35.5696 691.796 43.6015 690.419 50.9449C689.501 58.2878 689.731 66.0907 691.108 74.352C692.485 82.1548 695.467 88.3508 700.057 92.94C704.647 97.0707 712.22 99.136 722.776 99.136C733.331 98.6775 746.412 95.0053 762.018 88.1209V18.588C762.476 15.3753 763.394 12.6215 764.771 10.3266C766.148 7.57286 767.754 5.73705 769.59 4.81908C771.426 3.44219 773.261 2.52422 775.098 2.0653C776.933 1.14733 778.31 0.68841 779.229 0.68841H781.294C786.802 0.68841 791.161 2.29483 794.374 5.50752C797.587 8.2613 799.422 11.2446 799.882 14.4573L800.57 18.588V234.071C800.57 238.202 798.505 242.791 794.374 247.84C790.244 252.429 785.653 254.725 780.606 254.725C775.557 254.725 770.967 252.889 766.837 249.217C763.164 245.086 761.329 240.037 761.329 234.071V128.051ZM1061.27 240.267C1058.97 241.644 1055.99 243.251 1052.32 245.086C1049.1 246.463 1041.99 248.529 1030.97 251.282C1020.42 253.578 1010.09 254.725 999.994 254.725C989.896 254.266 978.192 251.282 964.883 245.775C952.031 240.267 940.328 231.547 929.772 219.614L876.074 159.031V238.202C876.532 239.579 876.532 241.186 876.074 243.021C876.074 244.856 874.467 247.382 871.254 250.594C868.501 253.348 864.37 254.725 858.862 254.725C857.944 254.725 856.337 254.725 854.043 254.725C852.207 254.266 849.683 252.659 846.47 249.905C843.257 247.152 841.651 243.021 841.651 237.513V19.2764C841.651 18.3584 841.651 16.9816 841.651 15.1458C842.11 12.8509 843.717 10.0971 846.47 6.88441C849.683 3.21266 853.813 1.14733 858.862 0.68841C860.239 0.68841 861.845 0.917938 863.682 1.37686C865.975 1.83577 868.729 3.67172 871.943 6.88441C875.155 9.63819 876.762 13.7689 876.762 19.2764V80.548L940.787 5.50752C947.212 -1.83584 955.245 -1.83584 964.883 5.50752C965.341 5.50752 965.571 5.73705 965.571 6.19597C966.03 6.65489 966.718 7.80239 967.637 9.63819C968.554 11.0151 969.014 12.6215 969.014 14.4573C969.472 15.8342 969.472 17.67 969.014 19.9649C969.014 22.2597 968.554 24.3251 967.637 26.1609L888.466 120.478L955.245 196.207C956.622 197.584 958.227 199.649 960.064 202.403C962.358 204.698 966.948 208.829 973.833 214.795C980.717 220.761 987.83 225.81 995.174 229.941C1002.98 234.071 1012.84 237.513 1024.78 240.267C1036.71 242.562 1048.87 242.562 1061.27 240.267ZM1269.13 6.19597H1270.5H1271.19H1272.57H1273.26H1273.95H1274.63H1275.32H1276.01H1277.39H1278.08H1278.76V6.88441H1279.45H1280.14H1280.83H1281.52H1282.21H1282.89H1283.58L1284.27 7.57286H1284.96H1285.65L1286.34 8.2613H1287.03H1287.71V8.94975H1288.4L1289.09 9.63819H1289.78V10.3266H1290.47V11.0151H1291.16V11.7035H1291.84V12.392H1292.53V13.0804H1293.22V13.7689V14.4573H1293.91V15.1458V15.8342H1294.6V16.5226V17.2111V17.8995H1295.29V18.588V19.2764V19.9649V20.6533V21.3418V236.825V237.513V238.202V238.89V239.579V240.267V240.956L1294.6 241.644V242.333V243.021H1293.91V243.709V244.398H1293.22V245.086V245.775H1292.53V246.463H1291.84V247.152L1291.16 247.84L1290.47 248.529L1289.78 249.217H1289.09V249.905L1288.4 250.594H1287.71V251.282H1287.03L1286.34 251.971H1285.65H1284.96V252.659H1284.27H1283.58H1282.89V253.348H1282.21H1281.52H1280.83H1280.14H1279.45H1278.76H1278.08H1277.39H1276.7H1276.01H1275.32H1274.63V252.659H1273.95H1273.26L1272.57 251.971H1271.88L1271.19 251.282H1270.5V250.594H1269.81V249.905H1269.13V249.217H1268.44V248.529H1267.75V247.84H1267.06V247.152L1266.37 246.463V245.775H1265.68V245.086V244.398H1265V243.709V243.021V242.333H1264.31V241.644V240.956V240.267V239.579L1263.62 238.89V238.202V237.513V236.825V37.176H1262.93H1262.24H1261.55H1260.86H1260.18H1258.8H1258.11H1257.42H1256.73H1256.05H1255.36H1254.67H1253.98H1253.29H1252.6H1251.91H1250.54H1249.16H1247.78H1246.41L1245.03 37.8644H1243.65H1242.28H1240.9H1239.52H1238.15L1237.46 38.5529H1236.08H1234.7H1234.02H1232.64L1231.95 39.2413H1230.57H1229.88H1228.51H1227.82L1226.44 39.9298H1225.75H1225.07H1223.69L1223 40.6182H1222.31H1221.62H1220.93L1219.56 41.3067H1218.87H1218.18H1217.49L1216.8 41.9951H1216.12H1215.43H1214.74L1214.05 42.6835H1213.36H1212.67L1211.98 43.372H1211.3H1210.61H1209.92L1209.23 44.0604H1208.54L1207.17 44.7489H1205.79L1205.1 45.4373H1203.72L1203.04 46.1258H1201.66L1200.28 46.8142L1199.59 47.5027H1198.22L1197.53 48.1911H1196.15L1195.46 48.8795L1194.09 49.568H1193.4L1192.02 50.2564H1191.33L1189.95 50.9449L1189.27 51.6333H1188.58L1187.2 52.3218L1186.51 53.0102H1185.14L1184.45 53.6987L1183.76 54.3871H1182.38L1181.69 55.0755L1181.01 55.764L1179.63 56.4524H1178.94L1178.25 57.1409L1176.87 57.8293H1176.19L1175.5 58.5178L1174.81 59.2062L1173.43 59.8947H1172.74L1172.06 60.5831L1171.37 61.2715L1170.68 61.96L1169.3 62.6484H1168.61L1167.92 63.3369L1167.24 64.0253L1166.55 64.7138H1165.86L1165.17 65.4022L1164.48 66.0907L1163.11 66.7791L1162.42 67.4676L1161.73 68.156H1161.04L1160.35 68.8444L1159.66 69.5329L1158.97 70.2213L1158.29 70.9098L1157.6 71.5982H1156.91L1156.22 72.2867L1155.53 72.9751L1154.84 73.6636L1154.16 74.352L1153.47 75.0404L1152.78 75.7289H1152.09V76.4173L1151.4 77.1058L1150.71 77.7942L1150.03 78.4827L1149.34 79.1711L1148.65 79.8596L1147.96 80.548H1147.27V81.2365L1146.58 81.9249L1145.89 82.6133L1145.21 83.3018L1144.52 83.9902V84.6787L1143.83 85.3671L1143.14 86.0556L1142.45 86.744V87.4324H1141.76L1141.08 88.1209L1140.39 88.8093V89.4978L1139.7 90.1862L1139.01 90.8747V91.5631L1138.32 92.2516L1137.63 92.94L1136.94 93.6285V94.3169L1136.26 95.0053L1135.57 95.6938L1134.88 96.3822V97.0707L1134.19 97.7591L1133.5 98.4476V99.136L1132.81 99.8245V100.513L1132.13 101.201V101.89L1131.44 102.578L1130.75 103.267V103.955H1130.06V104.644L1129.37 105.332V106.02L1128.68 106.709V107.397L1127.99 108.086V108.774L1127.31 109.463V110.151V110.84L1126.62 111.528L1125.93 112.216V112.905L1125.24 113.593V114.282V114.97L1124.55 115.659V116.347L1123.86 117.036V117.724L1123.18 118.412V119.101V119.789L1122.49 120.478V121.166L1121.8 121.855V122.543V123.232H1121.11V123.92V124.608V125.297L1120.42 125.985V126.674V127.362H1119.73V128.051V128.739V129.428L1119.05 130.116V130.804V131.493L1118.36 132.181V132.87V133.558L1117.67 134.247V134.935V135.624V136.312L1116.98 137.689V138.377V139.754L1116.29 140.443V141.82V142.508L1115.6 143.885V144.573V145.262L1114.91 146.639V147.327V148.016V149.392V150.081V150.769L1114.23 151.458V152.146V153.523V154.212V154.9V155.588V156.277V156.965L1113.54 157.654V158.342V159.031V159.719V160.408V161.096V161.785V162.473V163.161V163.85V164.538V165.227V165.915V166.604V167.292V167.98V168.669V169.357V170.046V170.734V171.423V172.111V172.8V173.488V174.176V174.865V175.553L1114.23 176.242V176.93V177.619V178.307V178.996V179.684V180.372V181.061V181.749V182.438V183.126H1114.91V183.815V184.503V185.192V185.88V186.568V187.257L1115.6 187.945V188.634V189.322V190.011V190.699V191.388L1116.29 192.076V192.764V193.453V194.141H1116.98V194.83V195.518V196.207V196.895L1117.67 197.584V198.272V198.961L1118.36 199.649V200.337V201.026L1119.05 201.714V202.403V203.091H1119.73V203.78L1120.42 204.468V205.157V205.845L1121.11 206.533V207.222L1121.8 207.91V208.599L1122.49 209.287V209.976L1123.18 210.664L1123.86 211.353V212.041H1124.55V212.729V213.418H1125.24V214.106H1125.93V214.795H1126.62V215.483H1127.31V216.172H1127.99V216.86H1128.68V217.549H1129.37V218.237H1130.06V218.925H1130.75L1131.44 219.614H1132.13V220.302H1132.81H1133.5V220.991H1134.19L1134.88 221.679H1135.57H1136.26V222.368H1136.94H1137.63H1138.32L1139.01 223.056H1139.7H1140.39H1141.76H1142.45H1143.14H1143.83H1144.52H1145.89H1146.58H1147.27H1147.96H1148.65H1149.34H1150.03H1151.4H1152.09H1152.78H1153.47H1154.16H1154.84H1155.53H1156.22L1156.91 222.368H1158.29H1158.97H1159.66H1160.35H1161.04H1161.73H1162.42H1163.11L1163.79 221.679H1164.48H1165.17H1165.86H1166.55H1167.24L1167.92 220.991H1168.61H1169.3H1169.99H1170.68H1171.37L1172.06 220.302H1172.74H1173.43H1174.12L1174.81 219.614H1175.5H1176.19H1176.87L1177.56 218.925H1178.25H1178.94H1179.63L1180.32 218.237H1181.01L1181.69 217.549H1182.38H1183.07H1183.76L1184.45 216.86H1185.14L1185.82 216.172H1186.51H1187.2L1187.89 215.483H1188.58L1189.27 214.795H1189.95L1190.64 214.106H1191.33H1192.02V213.418H1192.71H1193.4L1194.09 212.729H1194.77L1195.46 212.041H1196.15L1196.84 211.353H1197.53V210.664H1198.22H1198.9V209.976H1199.59L1200.28 209.287H1200.97L1201.66 208.599L1202.35 207.91H1203.04L1203.72 207.222H1204.41V206.533H1205.1L1205.79 205.845H1206.48V205.157H1207.17L1207.85 204.468H1208.54V203.78H1209.23V203.091H1209.92L1210.61 202.403L1211.3 201.714L1211.98 201.026H1212.67L1213.36 200.337L1214.05 199.649L1214.74 198.961L1215.43 198.272L1216.12 197.584L1216.8 196.895L1217.49 196.207H1218.18V195.518L1218.87 194.83L1219.56 194.141L1220.25 193.453L1220.93 192.764V192.076H1221.62L1222.31 191.388L1223 190.699V190.011L1223.69 189.322H1224.38V188.634L1225.07 187.945L1225.75 187.257V186.568H1226.44V185.88L1227.13 185.192V184.503H1227.82V183.815L1228.51 183.126V182.438H1229.2V181.749L1229.88 181.061L1230.57 180.372V179.684L1231.26 178.996V178.307H1231.95V177.619V176.93L1232.64 176.242V175.553H1233.33V174.865L1234.02 174.176V175.553V176.242V176.93L1233.33 177.619V178.307V178.996V179.684V180.372V181.061L1232.64 182.438V183.126V183.815V184.503V185.192L1231.95 185.88V186.568V187.257V187.945L1231.26 188.634V189.322V190.011L1230.57 190.699V191.388V192.076V192.764L1229.88 193.453V194.141L1229.2 194.83V195.518V196.207L1228.51 196.895V197.584V198.272L1227.82 198.961V199.649L1227.13 200.337V201.026L1226.44 201.714V202.403V203.091L1225.75 203.78L1225.07 204.468V205.157L1224.38 205.845V206.533V207.222H1223.69V207.91L1223 208.599V209.287H1222.31V209.976L1221.62 210.664V211.353L1220.93 212.041V212.729H1220.25V213.418L1219.56 214.106L1218.87 214.795V215.483H1218.18V216.172V216.86H1217.49V217.549L1216.8 218.237L1216.12 218.925V219.614H1215.43V220.302L1214.74 220.991L1214.05 221.679L1213.36 222.368L1212.67 223.056V223.745L1211.98 224.433H1211.3L1210.61 225.121V225.81L1209.92 226.498L1209.23 227.187H1208.54V227.875H1207.85V228.564L1207.17 229.252H1206.48V229.941L1205.79 230.629L1204.41 231.317L1203.72 232.006L1203.04 232.694H1201.66L1200.97 233.383L1200.28 234.071L1199.59 234.76L1198.22 235.448L1197.53 236.137L1196.84 236.825H1196.15L1194.77 237.513L1194.09 238.202L1193.4 238.89L1192.71 239.579H1191.33L1190.64 240.267L1189.95 240.956H1189.27L1187.89 241.644L1187.2 242.333H1186.51L1185.82 243.021L1185.14 243.709H1184.45L1183.07 244.398H1182.38L1181.69 245.086L1181.01 245.775H1180.32L1179.63 246.463H1178.25L1177.56 247.152H1176.87L1176.19 247.84H1175.5H1174.81L1174.12 248.529H1173.43L1172.74 249.217H1171.37H1170.68L1169.99 249.905H1169.3L1168.61 250.594H1167.92H1167.24H1166.55L1165.86 251.282H1165.17H1164.48L1163.79 251.971H1163.11H1162.42H1161.73H1161.04L1160.35 252.659H1159.66H1158.97H1158.29H1157.6H1156.91L1156.22 253.348H1155.53H1154.84H1154.16H1153.47H1152.78H1152.09H1151.4H1150.71H1150.03H1149.34H1148.65H1147.96H1147.27H1146.58H1145.89H1145.21H1144.52H1143.83H1143.14H1142.45H1141.76H1141.08H1140.39H1139.7H1139.01L1138.32 252.659H1137.63H1136.94H1136.26H1135.57L1134.88 251.971H1134.19H1133.5H1132.81L1132.13 251.282H1131.44H1130.75L1130.06 250.594H1129.37H1128.68H1127.99V249.905H1127.31H1126.62L1125.93 249.217H1125.24H1124.55V248.529H1123.86H1123.18V247.84H1122.49L1121.8 247.152H1121.11L1120.42 246.463H1119.73L1119.05 245.775H1118.36V245.086H1117.67H1116.98V244.398H1116.29L1115.6 243.709L1114.91 243.021H1114.23L1113.54 242.333H1112.85V241.644H1112.16V240.956H1111.47L1110.78 240.267L1110.1 239.579H1109.41V238.89L1108.72 238.202H1108.03V237.513H1107.34V236.825H1106.65V236.137L1105.96 235.448L1105.28 234.76H1104.59V234.071L1103.9 233.383L1103.21 232.694H1102.52V232.006L1101.83 231.317L1101.15 230.629L1100.46 229.941V229.252L1099.77 228.564L1099.08 227.875V227.187H1098.39V226.498L1097.7 225.81L1097.01 225.121V224.433L1096.33 223.745V223.056H1095.64V222.368L1094.95 221.679V220.991H1094.26V220.302L1093.57 219.614V218.925L1092.88 218.237V217.549V216.86L1092.2 216.172V215.483L1091.51 214.795V214.106L1090.82 213.418V212.729V212.041L1090.13 211.353V210.664V209.976H1089.44V209.287V208.599L1088.75 207.91V207.222V206.533L1088.06 205.845V205.157V204.468L1087.38 203.78V203.091V202.403L1086.69 201.714V201.026V200.337V199.649L1086 198.961V198.272V197.584L1085.31 196.895V196.207V195.518V194.83V194.141L1084.62 193.453V192.764V192.076V191.388V190.699L1083.93 190.011V189.322V188.634V187.945V187.257V186.568L1083.25 185.88V185.192V184.503V183.815V183.126V182.438V181.749V181.061V180.372L1082.56 179.684V178.996V178.307V177.619V176.93V176.242V175.553V174.865V174.176V173.488V172.8V172.111V171.423V170.734V170.046V169.357V168.669V167.98V167.292V166.604V165.915V165.227V163.85V162.473V161.785V160.408V159.031V158.342V156.965L1083.25 156.277V154.9V153.523V152.835V151.458V150.769V149.392L1083.93 148.704V147.327V146.639V145.262L1084.62 144.573V143.196V142.508V141.82V140.443L1085.31 139.754V138.377V137.689L1086 137V135.624V134.935V134.247L1086.69 132.87V132.181V131.493V130.804L1087.38 130.116V128.739V128.051L1088.06 127.362V126.674V125.985L1088.75 125.297V124.608V123.92V123.232L1089.44 122.543V121.855V121.166L1090.13 120.478V119.789V119.101V118.412L1090.82 117.724V117.036L1091.51 115.659V114.97L1092.2 113.593V112.905V112.216L1092.88 111.528V110.84L1093.57 110.151V109.463V108.774L1094.26 108.086V107.397L1094.95 106.709V106.02L1095.64 104.644V103.955L1096.33 103.267V102.578L1097.01 101.89V101.201L1097.7 100.513V99.8245L1098.39 99.136V98.4476L1099.08 97.7591V97.0707L1099.77 96.3822V95.6938L1100.46 95.0053L1101.15 94.3169V93.6285L1101.83 92.94V92.2516L1102.52 91.5631V90.8747L1103.21 90.1862V89.4978L1103.9 88.8093L1104.59 88.1209V87.4324L1105.28 86.744V86.0556L1105.96 85.3671V84.6787L1106.65 83.9902H1107.34V83.3018L1108.03 82.6133V81.9249L1108.72 81.2365L1109.41 80.548V79.8596L1110.1 79.1711V78.4827H1110.78L1111.47 77.7942V77.1058L1112.16 76.4173V75.7289L1112.85 75.0404L1113.54 74.352L1114.23 73.6636L1114.91 72.9751V72.2867L1115.6 71.5982L1116.29 70.9098L1116.98 70.2213V69.5329L1117.67 68.8444H1118.36V68.156L1119.05 67.4676L1119.73 66.7791L1120.42 66.0907L1121.11 65.4022V64.7138H1121.8V64.0253L1122.49 63.3369L1123.18 62.6484L1123.86 61.96L1124.55 61.2715L1125.24 60.5831L1125.93 59.8947V59.2062H1126.62L1127.31 58.5178V57.8293H1127.99L1128.68 57.1409V56.4524H1129.37L1130.06 55.764V55.0755H1130.75L1131.44 54.3871L1132.13 53.6987L1132.81 53.0102L1133.5 52.3218L1134.19 51.6333L1135.57 50.9449L1136.26 49.568L1136.94 48.8795L1137.63 48.1911L1139.01 47.5027L1139.7 46.8142L1140.39 46.1258L1141.76 45.4373L1142.45 44.7489L1143.14 44.0604L1144.52 43.372L1145.21 42.6835L1145.89 41.9951L1146.58 41.3067L1147.96 40.6182L1148.65 39.9298L1149.34 39.2413L1150.03 38.5529L1151.4 37.8644H1152.09L1152.78 37.176L1153.47 36.4875L1154.16 35.7991L1155.53 35.1106H1156.22L1156.91 34.4222L1157.6 33.7338L1158.29 33.0453H1158.97L1159.66 32.3569L1160.35 31.6684H1161.73L1162.42 30.98L1163.11 30.2915H1163.79L1164.48 29.6031H1165.17L1165.86 28.9146L1166.55 28.2262H1167.24L1167.92 27.5378L1168.61 26.8493H1169.3H1169.99L1170.68 26.1609H1171.37L1172.06 25.4724L1172.74 24.784H1173.43H1174.12V24.0955H1175.5L1176.19 23.4071H1176.87L1177.56 22.7186H1178.25L1178.94 22.0302H1179.63H1180.32L1181.01 21.3418H1181.69L1183.07 20.6533L1183.76 19.9649H1185.14L1185.82 19.2764H1186.51L1187.89 18.588H1188.58L1189.95 17.8995H1190.64L1192.02 17.2111H1192.71L1194.09 16.5226H1194.77L1196.15 15.8342H1196.84L1197.53 15.1458H1198.9L1199.59 14.4573H1200.97H1201.66L1203.04 13.7689H1203.72L1205.1 13.0804H1205.79H1207.17L1207.85 12.392H1209.23H1209.92L1211.3 11.7035H1211.98H1213.36H1214.05L1215.43 11.0151H1216.12H1217.49L1218.18 10.3266H1219.56H1220.25H1221.62L1222.31 9.63819H1223.69H1224.38H1225.75L1226.44 8.94975H1227.13H1228.51H1229.2H1230.57L1231.26 8.2613H1232.64H1233.33H1234.02H1235.39H1236.08L1237.46 7.57286H1238.15H1238.83H1240.21H1240.9H1241.59H1242.97H1243.65H1244.34L1245.72 6.88441H1246.41H1247.1H1247.78H1249.16H1249.85H1250.54H1251.23H1253.29H1254.67H1256.05L1258.11 6.19597H1259.49H1260.86H1262.24H1263.62H1265H1265.68H1267.06H1268.44H1269.13ZM1267.06 11.7035H1266.37H1265H1263.62H1262.24H1260.86H1259.49H1258.11H1256.73H1254.67H1253.29H1251.91L1251.23 12.392H1249.85H1249.16H1248.47H1247.78H1246.41H1245.72H1245.03H1244.34H1242.97H1242.28L1241.59 13.0804H1240.21H1239.52H1238.83H1237.46H1236.77H1236.08H1234.7L1234.02 13.7689H1233.33H1231.95H1231.26H1229.88L1229.2 14.4573H1228.51H1227.13H1226.44H1225.07L1224.38 15.1458H1223H1222.31H1221.62L1220.25 15.8342H1219.56H1218.18H1217.49L1216.12 16.5226H1215.43H1214.05L1213.36 17.2111H1211.98H1211.3H1210.61L1209.23 17.8995H1208.54L1207.17 18.588H1206.48H1205.1L1204.41 19.2764H1203.04H1202.35L1200.97 19.9649H1200.28L1199.59 20.6533H1198.22L1197.53 21.3418H1196.15H1195.46L1194.09 22.0302H1193.4L1192.71 22.7186H1191.33L1190.64 23.4071H1189.95L1188.58 24.0955H1187.89L1186.51 24.784H1185.82L1185.14 25.4724L1183.76 26.1609H1183.07H1182.38V26.8493H1181.69H1181.01L1180.32 27.5378H1179.63L1178.94 28.2262H1178.25L1177.56 28.9146H1176.87L1176.19 29.6031H1175.5L1174.81 30.2915H1174.12H1173.43L1172.74 30.98L1172.06 31.6684H1171.37L1170.68 32.3569H1169.99L1169.3 33.0453H1168.61L1167.92 33.7338H1167.24L1166.55 34.4222H1165.86L1165.17 35.1106L1164.48 35.7991H1163.79L1163.11 36.4875H1162.42L1161.73 37.176L1161.04 37.8644H1160.35L1159.66 38.5529L1158.97 39.2413L1158.29 39.9298H1157.6L1156.22 40.6182L1155.53 41.3067L1154.84 41.9951L1154.16 42.6835H1153.47L1152.78 43.372L1151.4 44.0604L1150.71 44.7489L1150.03 45.4373L1149.34 46.1258L1147.96 46.8142L1147.27 47.5027L1146.58 48.1911L1145.89 48.8795L1145.21 49.568L1143.83 50.2564L1143.14 50.9449L1142.45 51.6333L1141.08 52.3218L1140.39 53.0102L1139.7 53.6987L1139.01 54.3871L1137.63 55.764L1136.94 56.4524L1136.26 57.1409H1135.57V57.8293L1134.88 58.5178H1134.19V59.2062L1133.5 59.8947H1132.81V60.5831H1132.13L1131.44 61.2715V61.96H1130.75V62.6484L1130.06 63.3369H1129.37V64.0253L1128.68 64.7138H1127.99V65.4022L1127.31 66.0907H1126.62V66.7791L1125.93 67.4676V68.156H1125.24L1124.55 68.8444V69.5329H1123.86L1123.18 70.2213V70.9098L1122.49 71.5982L1121.8 72.2867L1121.11 72.9751V73.6636L1120.42 74.352H1119.73V75.0404L1119.05 75.7289V76.4173H1118.36L1117.67 77.1058V77.7942L1116.98 78.4827V79.1711H1116.29L1115.6 79.8596V80.548L1114.91 81.2365V81.9249L1114.23 82.6133H1113.54V83.3018L1112.85 83.9902V84.6787L1112.16 85.3671V86.0556L1111.47 86.744L1110.78 87.4324L1110.1 88.1209V88.8093L1109.41 89.4978V90.1862L1108.72 90.8747V91.5631L1108.03 92.2516L1107.34 92.94V93.6285L1106.65 94.3169V95.0053L1105.96 95.6938V96.3822H1105.28V97.0707L1104.59 97.7591V98.4476L1103.9 99.136V99.8245L1103.21 100.513V101.201L1102.52 101.89V102.578L1101.83 103.267V103.955L1101.15 104.644V106.02L1100.46 106.709V107.397L1099.77 108.086V108.774L1099.08 109.463V110.151L1098.39 110.84V111.528V112.216L1097.7 112.905V113.593V114.282L1097.01 114.97V115.659L1096.33 116.347V117.036L1095.64 118.412V119.789L1094.95 120.478V121.166V121.855V122.543L1094.26 123.232V123.92V124.608L1093.57 125.297V125.985V126.674V127.362L1092.88 128.051V128.739V129.428L1092.2 130.116V130.804V132.181V132.87L1091.51 133.558V134.247V134.935L1090.82 136.312V137V137.689V138.377L1090.13 139.754V140.443V141.131V142.508L1089.44 143.196V144.573V145.262V145.95V147.327L1088.75 148.016V149.392V150.081V151.458V152.146V153.523L1088.06 154.212V155.588V156.277V157.654V158.342V159.719V160.408V161.785V163.161L1087.38 163.85V165.227V165.915V166.604V167.292V167.98V168.669V169.357V170.046V170.734V171.423V172.111H1088.06V172.8V173.488V174.176V174.865V175.553V176.242V176.93V177.619V178.307V178.996V179.684V180.372V181.061V181.749L1088.75 182.438V183.126V183.815V184.503V185.192V185.88V186.568L1089.44 187.257V187.945V188.634V189.322V190.011V190.699L1090.13 191.388V192.076V192.764V193.453V194.141L1090.82 194.83V195.518V196.207V196.895V197.584H1091.51V198.272V198.961V199.649L1092.2 200.337V201.026V201.714L1092.88 202.403V203.091V203.78V204.468L1093.57 205.157V205.845L1094.26 206.533V207.222V207.91L1094.95 208.599V209.287L1095.64 209.976V210.664V211.353L1096.33 212.041V212.729L1097.01 213.418V214.106L1097.7 214.795V215.483V216.172H1098.39V216.86L1099.08 217.549V218.237V218.925H1099.77V219.614L1100.46 220.302V220.991H1101.15V221.679L1101.83 222.368V223.056L1102.52 223.745L1103.21 224.433L1103.9 225.121V225.81H1104.59V226.498L1105.28 227.187L1105.96 227.875L1106.65 228.564V229.252H1107.34V229.941L1108.03 230.629H1108.72V231.317L1109.41 232.006L1110.1 232.694H1110.78V233.383H1111.47V234.071H1112.16V234.76H1112.85V235.448H1113.54V236.137H1114.23L1114.91 236.825H1115.6V237.513H1116.29V238.202H1116.98L1117.67 238.89L1118.36 239.579H1119.05V240.267H1119.73L1120.42 240.956H1121.11H1121.8V241.644H1122.49L1123.18 242.333H1123.86V243.021H1124.55H1125.24V243.709H1125.93H1126.62L1127.31 244.398H1127.99L1128.68 245.086H1129.37H1130.06L1130.75 245.775H1131.44H1132.13L1132.81 246.463H1133.5H1134.19L1134.88 247.152H1135.57H1136.26H1136.94H1137.63V247.84H1138.32H1139.01H1139.7H1140.39H1141.08H1141.76L1142.45 248.529H1143.14H1143.83H1144.52H1145.21H1145.89H1146.58H1147.27H1147.96H1148.65H1149.34H1150.03H1150.71H1151.4H1152.09H1152.78L1153.47 247.84H1154.16H1154.84H1155.53H1156.22H1156.91H1157.6H1158.29V247.152H1158.97H1159.66H1160.35H1161.04L1161.73 246.463H1162.42H1163.11H1163.79L1164.48 245.775H1165.17H1165.86H1166.55L1167.24 245.086H1167.92H1168.61L1169.3 244.398H1169.99H1170.68L1171.37 243.709H1172.06L1172.74 243.021H1173.43H1174.12L1174.81 242.333H1175.5L1176.19 241.644H1176.87L1178.25 240.956H1178.94L1179.63 240.267H1180.32L1181.01 239.579L1181.69 238.89H1182.38L1183.07 238.202H1183.76L1185.14 237.513L1185.82 236.825H1186.51L1187.2 236.137L1187.89 235.448H1188.58L1189.95 234.76L1190.64 234.071H1191.33L1192.02 233.383L1192.71 232.694L1194.09 232.006L1194.77 231.317H1195.46L1196.15 230.629L1197.53 229.941L1198.22 229.252L1198.9 228.564L1199.59 227.875L1200.97 227.187L1201.66 226.498H1202.35L1203.04 225.81L1203.72 225.121L1204.41 224.433L1205.1 223.745L1205.79 223.056L1206.48 222.368L1207.17 221.679L1207.85 220.991V220.302H1208.54L1209.23 219.614V218.925L1209.92 218.237L1210.61 217.549L1211.3 216.86L1211.98 216.172V215.483L1212.67 214.795L1213.36 214.106V213.418H1214.05V212.729L1214.74 212.041L1215.43 211.353V210.664L1216.12 209.976L1216.8 209.287V208.599H1217.49V207.91V207.222L1218.18 206.533L1218.87 205.845V205.157L1219.56 204.468V203.78L1220.25 203.091V202.403L1220.93 201.714V201.026L1221.62 200.337V199.649L1220.93 200.337L1220.25 201.026L1219.56 201.714L1218.87 202.403L1218.18 203.091L1217.49 203.78H1216.8L1216.12 204.468L1215.43 205.157L1214.74 205.845L1214.05 206.533L1213.36 207.222H1212.67L1211.98 207.91L1211.3 208.599H1210.61V209.287H1209.92V209.976H1209.23H1208.54V210.664H1207.85L1207.17 211.353L1206.48 212.041H1205.79L1205.1 212.729H1204.41V213.418H1203.72L1203.04 214.106H1202.35L1201.66 214.795L1200.97 215.483H1200.28H1199.59V216.172H1198.9L1198.22 216.86H1197.53L1196.84 217.549H1196.15L1195.46 218.237H1194.77L1194.09 218.925H1193.4H1192.71L1192.02 219.614H1191.33L1190.64 220.302H1189.95H1189.27V220.991H1188.58H1187.89L1187.2 221.679H1186.51H1185.82L1185.14 222.368H1184.45H1183.76V223.056H1183.07H1182.38L1181.69 223.745H1181.01H1180.32H1179.63L1178.94 224.433H1178.25H1177.56H1176.87L1176.19 225.121H1175.5H1174.81H1174.12L1173.43 225.81H1172.74H1172.06H1171.37H1170.68L1169.99 226.498H1169.3H1168.61H1167.92H1167.24H1166.55L1165.86 227.187H1165.17H1164.48H1163.79H1163.11H1162.42L1161.73 227.875H1161.04H1159.66H1158.97H1158.29H1157.6H1156.91H1156.22H1155.53H1154.84H1153.47H1152.78L1152.09 228.564H1151.4H1150.71H1149.34H1148.65H1147.96H1147.27H1146.58H1145.21H1144.52H1143.83H1143.14H1142.45H1141.08L1140.39 227.875H1139.7H1139.01H1138.32H1137.63H1136.94H1136.26V227.187H1135.57H1134.88H1134.19V226.498H1133.5H1132.81L1132.13 225.81H1131.44L1130.75 225.121H1130.06L1129.37 224.433H1128.68V223.745H1127.99V223.056H1127.31L1126.62 222.368L1125.93 221.679H1125.24V220.991H1124.55V220.302H1123.86V219.614H1123.18V218.925L1122.49 218.237L1121.8 217.549L1121.11 216.86L1120.42 216.172V215.483H1119.73V214.795L1119.05 214.106V213.418H1118.36V212.729L1117.67 212.041V211.353L1116.98 210.664V209.976L1116.29 209.287V208.599L1115.6 207.91V207.222V206.533L1114.91 205.845V205.157H1114.23V204.468V203.78L1113.54 203.091V202.403V201.714L1112.85 201.026V200.337V199.649V198.961H1112.16V198.272V197.584V196.895H1111.47V196.207V195.518V194.83V194.141H1110.78V193.453V192.764V192.076V191.388V190.699H1110.1V190.011V189.322V188.634V187.945V187.257V186.568H1109.41V185.88V185.192V184.503V183.815V183.126V182.438V181.749V181.061L1108.72 180.372V179.684V178.996V178.307V177.619V176.93V176.242V175.553V174.865V174.176V173.488V172.8V172.111V171.423V170.734V170.046L1108.03 169.357V168.669V167.98V167.292V166.604V165.915V165.227V164.538V163.85V163.161V162.473V161.096H1108.72V160.408V159.719V159.031V158.342V157.654V156.965V156.277V155.588V154.9V154.212V153.523V152.835L1109.41 152.146V150.769V150.081V149.392V148.704L1110.1 147.327V146.639V145.95V144.573L1110.78 143.885V142.508V141.82V140.443L1111.47 139.754V138.377V137.689L1112.16 136.312V134.935L1112.85 134.247V133.558V132.87V132.181H1113.54V131.493V130.804V130.116L1114.23 129.428V128.739V128.051L1114.91 127.362V126.674V125.985V125.297L1115.6 124.608V123.92V123.232H1116.29V122.543V121.855L1116.98 121.166V120.478V119.789L1117.67 119.101V118.412V117.724L1118.36 117.036V116.347H1119.05V115.659V114.97L1119.73 114.282V113.593L1120.42 112.905V112.216V111.528L1121.11 110.84V110.151L1121.8 109.463V108.774L1122.49 108.086V107.397L1123.18 106.709V106.02L1123.86 105.332V104.644H1124.55V103.955L1125.24 103.267V102.578L1125.93 101.89V101.201L1126.62 100.513L1127.31 99.8245V99.136L1127.99 98.4476V97.7591L1128.68 97.0707V96.3822L1129.37 95.6938L1130.06 95.0053V94.3169L1130.75 93.6285L1131.44 92.94V92.2516L1132.13 91.5631L1132.81 90.8747V90.1862L1133.5 89.4978L1134.19 88.8093V88.1209L1134.88 87.4324L1135.57 86.744H1136.26V86.0556L1136.94 85.3671L1137.63 84.6787L1138.32 83.9902V83.3018L1139.01 82.6133L1139.7 81.9249L1140.39 81.2365L1141.08 80.548V79.8596L1141.76 79.1711L1142.45 78.4827L1143.14 77.7942L1143.83 77.1058L1144.52 76.4173L1145.21 75.7289H1145.89V75.0404L1146.58 74.352L1147.27 73.6636L1147.96 72.9751L1148.65 72.2867L1149.34 71.5982L1150.03 70.9098L1150.71 70.2213L1151.4 69.5329L1152.09 68.8444H1152.78L1153.47 68.156L1154.16 67.4676L1154.84 66.7791L1155.53 66.0907L1156.22 65.4022L1156.91 64.7138L1158.29 64.0253H1158.97L1159.66 63.3369L1160.35 62.6484L1161.04 61.96L1161.73 61.2715L1162.42 60.5831L1163.11 59.8947H1164.48L1165.17 59.2062L1165.86 58.5178L1166.55 57.8293L1167.24 57.1409H1168.61L1169.3 56.4524L1169.99 55.764L1170.68 55.0755L1172.06 54.3871H1172.74L1173.43 53.6987L1174.81 53.0102L1175.5 52.3218H1176.19L1177.56 51.6333L1178.25 50.9449L1178.94 50.2564H1180.32L1181.01 49.568L1182.38 48.8795H1183.07L1183.76 48.1911L1185.14 47.5027L1185.82 46.8142H1187.2L1187.89 46.1258L1189.27 45.4373H1189.95L1191.33 44.7489L1192.02 44.0604H1193.4L1194.09 43.372H1195.46L1196.84 42.6835L1197.53 41.9951H1198.9L1200.28 41.3067H1200.97L1202.35 40.6182L1203.04 39.9298H1204.41L1205.79 39.2413H1206.48L1207.85 38.5529H1208.54H1209.23L1209.92 37.8644H1210.61H1211.98V37.176H1212.67H1213.36H1214.05H1214.74L1215.43 36.4875H1216.12H1216.8H1217.49L1218.18 35.7991H1218.87H1219.56H1220.25L1220.93 35.1106H1222.31H1223H1223.69L1225.07 34.4222H1225.75H1226.44H1227.82L1228.51 33.7338H1229.88H1230.57H1231.95H1233.33L1234.02 33.0453H1235.39H1236.77H1238.15H1238.83L1240.21 32.3569H1241.59H1242.97H1244.34H1245.72H1247.1H1248.47L1249.85 31.6684H1251.23H1251.91H1252.6H1253.98H1254.67H1255.36H1256.05H1256.73H1257.42H1258.11H1258.8H1259.49H1260.86H1261.55H1262.24H1262.93H1263.62L1269.13 37.176V236.825V237.513V238.202V238.89V239.579V240.267H1269.81V240.956V241.644V242.333H1270.5V243.021L1271.19 243.709V244.398H1271.88V245.086L1272.57 245.775L1273.26 246.463H1273.95V247.152H1274.63L1275.32 247.84H1276.01H1276.7V248.529H1277.39H1278.08H1278.76H1279.45H1280.14H1280.83V247.84H1281.52H1282.21H1282.89V247.152H1283.58H1284.27V246.463H1284.96V245.775H1285.65H1286.34V245.086L1287.03 244.398H1287.71V243.709L1288.4 243.021V242.333H1289.09V241.644V240.956H1289.78V240.267V239.579V238.89H1290.47V238.202V237.513V236.825V21.3418V20.6533V19.9649H1289.78V19.2764V18.588V17.8995H1289.09V17.2111V16.5226H1288.4V15.8342H1287.71V15.1458H1287.03V14.4573H1286.34V13.7689H1285.65V13.0804H1284.96H1284.27V12.392H1283.58H1282.89H1282.21H1281.52V11.7035H1280.83H1280.14H1279.45H1278.76H1278.08H1277.39H1276.7H1276.01H1275.32H1274.63H1273.95H1273.26H1271.88H1271.19H1270.5H1269.13H1268.44H1267.06ZM1295.29 236.825C1295.29 241.414 1293.45 245.316 1289.78 248.529C1286.57 251.741 1282.89 253.348 1278.76 253.348C1274.63 253.348 1270.96 251.741 1267.75 248.529C1265 245.316 1263.62 241.414 1263.62 236.825V37.176C1257.19 36.7171 1251 36.7171 1245.03 37.176C1239.06 37.6349 1234.02 38.3233 1229.88 39.2413C1225.75 39.7002 1222.08 40.3887 1218.87 41.3067C1215.66 41.7656 1213.36 42.2246 1211.98 42.6835L1209.23 44.0604C1195.92 48.1911 1183.76 53.6987 1172.74 60.5831C1162.19 67.009 1153.7 73.8935 1147.27 81.2365C1140.85 88.5794 1135.11 96.1523 1130.06 103.955C1125.47 111.758 1122.03 119.331 1119.73 126.674C1117.9 134.017 1116.29 140.443 1114.91 145.95C1114 151.458 1113.54 156.047 1113.54 159.719V164.538C1113.54 172.8 1114 180.143 1114.91 186.568C1115.83 192.994 1116.98 198.272 1118.36 202.403C1120.19 206.075 1122.03 209.287 1123.86 212.041C1126.16 214.795 1128.22 216.86 1130.06 218.237C1131.9 219.614 1133.5 220.761 1134.88 221.679C1136.72 222.138 1138.09 222.598 1139.01 223.056H1140.39C1153.7 223.515 1166.09 222.138 1177.56 218.925C1189.04 215.713 1197.99 211.811 1204.41 207.222C1211.3 202.173 1217.03 197.125 1221.62 192.076C1226.21 187.027 1229.43 182.668 1231.26 178.996L1234.02 173.488C1233.56 183.585 1231.03 193.453 1226.44 203.091C1221.85 212.271 1217.26 218.925 1212.67 223.056L1206.48 229.941C1191.79 240.956 1178.02 248.07 1165.17 251.282C1152.32 254.495 1141.76 254.725 1133.5 251.971C1125.24 249.217 1117.9 245.545 1111.47 240.956C1105.51 236.366 1101.15 231.776 1098.39 227.187L1094.26 220.302C1086.46 205.157 1082.56 188.404 1082.56 170.046C1082.56 151.228 1084.39 136.312 1088.06 125.297L1093.57 108.774C1099.08 96.3822 1105.74 85.1372 1113.54 75.0404C1121.34 64.4838 1128.91 55.9939 1136.26 49.568C1144.06 43.1425 1151.4 37.8644 1158.29 33.7338C1165.17 29.1442 1170.68 25.9313 1174.81 24.0955L1181.01 21.3418C1192.94 16.2931 1206.94 12.6215 1223 10.3266C1239.06 7.57286 1252.14 6.19597 1262.24 6.19597H1277.39C1280.14 6.19597 1282.44 6.65489 1284.27 7.57286C1286.11 8.03178 1287.49 8.72022 1288.4 9.63819C1289.78 10.5562 1290.93 11.474 1291.84 12.392C1292.76 13.3099 1293.45 14.4573 1293.91 15.8342C1294.37 16.7522 1294.6 17.67 1294.6 18.588C1295.06 19.5059 1295.29 20.1944 1295.29 20.6533V21.3418V236.825ZM1436.63 217.549C1436.63 200.567 1440.76 188.634 1449.02 181.749C1457.29 174.865 1467.16 171.423 1478.63 171.423C1490.57 171.423 1500.66 174.865 1508.92 181.749C1517.64 188.634 1522 200.567 1522 217.549C1522 234.071 1517.64 246.005 1508.92 253.348C1500.66 260.691 1490.57 264.363 1478.63 264.363C1467.16 264.363 1457.29 260.691 1449.02 253.348C1440.76 246.005 1436.63 234.071 1436.63 217.549Z" fill="white"/>
</svg>
